<?xml version="1.0" encoding="utf-8"?>
<!-- Generator: Adobe Illustrator 18.1.1, SVG Export Plug-In . SVG Version: 6.00 Build 0)  -->
<svg version="1.1" id="Layer_1" xmlns:sketch="http://www.bohemiancoding.com/sketch/ns"
	 xmlns="http://www.w3.org/2000/svg" xmlns:xlink="http://www.w3.org/1999/xlink" x="0px" y="0px" viewBox="80.5 40.4 435.1 159.7"
	 enable-background="new 80.5 40.4 435.1 159.7" xml:space="preserve">
<title>ng-conf-logo-fullcolor-horizontal-lightbg</title>
<desc>Created with Sketch.</desc>
<g id="logos-color" sketch:type="MSPage">
	<g id="ng-conf-logo-fullcolor-horizontal-lightbg" sketch:type="MSArtboardGroup">
		<g id="ng-conf-horizontal" transform="translate(316.000000, 244.000000)" sketch:type="MSLayerGroup">
			<g id="ng-conf-logotype" transform="translate(564.000000, 105.000000)" sketch:type="MSShapeGroup">
				<path id="n" fill="#515151" d="M-604.8-257.5c0,0-15.9,3.5-15.9,7.8v47.5c0,0.8,5.6,1.4,5.6,1.4s5.6-0.7,5.6-1.4v-43.2
					c0-1.2,4.7-2.3,4.7-2.3s4.7,1.1,4.7,2.4v43.1c0,0.8,5.6,1.4,5.6,1.4s5.6-0.7,5.6-1.4v-47.5C-588.9-254-604.8-257.5-604.8-257.5z
					"/>
				<path id="g" fill="#515151" d="M-557.6-216.3v-6.1c6-1.1,10.3-4,10.3-7.5v-19.8c0-4.3-15.9-7.9-15.9-7.9s-15.9,3.6-15.9,7.9
					v19.8c0,3.5,4.2,6.3,10.3,7.5v6.1c-6,1.1-10.3,4-10.3,7.4v19.8c0,4.4,15.9,8,15.9,8s15.9-3.6,15.9-8v-19.8
					C-547.4-212.2-551.6-215.1-557.6-216.3z M-563.2-190.3c0,0-4.8-1.1-4.8-2.5v-11.5c0-1.3,4.8-2.4,4.8-2.4s4.8,1.1,4.8,2.4v11.6
					C-558.5-191.4-563.2-190.3-563.2-190.3z M-563.2-230.9c0,0-4.8-1.1-4.8-2.4V-245c0-1.3,4.8-2.4,4.8-2.4s4.8,1.1,4.8,2.5v11.5
					C-558.5-232-563.2-230.9-563.2-230.9z"/>
				<path id="dash" fill="#515151" d="M-521.3-231.5h-15.1c-0.4,0-1.1,4.7-1.1,4.7s0.8,4.8,1.1,4.8h15.1c0.4,0,1.2-4.7,1.2-4.7
					S-520.9-231.5-521.3-231.5z"/>
				<path id="c" fill="#515151" d="M-484.1-219.7c0,0-5.6,0.7-5.6,1.3v6.5c0,1.3-4.7,2.4-4.7,2.4s-4.7-1.1-4.7-2.3v-33.5
					c0-1.2,4.7-2.3,4.7-2.3s4.7,1.1,4.7,2.4v6.5c0,0.7,5.6,1.3,5.6,1.3s5.6-0.7,5.6-1.3v-10.9c0-4.3-15.9-7.9-15.9-7.9
					s-15.9,3.6-15.9,7.9v42.2c0,4.3,15.9,7.9,15.9,7.9s15.9-3.6,15.9-7.9v-10.9C-478.6-219-484.1-219.7-484.1-219.7z"/>
				<path id="o" fill="#515151" d="M-453.2-257.5c0,0-15.9,3.6-15.9,7.9v42.2c0,4.3,15.9,7.9,15.9,7.9s15.9-3.6,15.9-7.9v-42.2
					C-437.3-253.9-453.2-257.5-453.2-257.5z M-453.2-209.9c0,0-4.8-1.1-4.8-2.3v-33.4c0-1.2,4.8-2.3,4.8-2.3s4.8,1.1,4.8,2.4v33.3
					C-448.4-211.1-453.2-209.9-453.2-209.9z"/>
				<path id="n_1_" fill="#515151" d="M-411.6-257.5c0,0-15.9,3.5-15.9,7.8v47.5c0,0.8,5.6,1.4,5.6,1.4s5.6-0.7,5.6-1.4v-43.2
					c0-1.2,4.7-2.3,4.7-2.3s4.7,1.1,4.7,2.4v43.1c0,0.8,5.6,1.4,5.6,1.4s5.6-0.7,5.6-1.4v-47.5C-395.8-254-411.6-257.5-411.6-257.5z
					"/>
				<path id="f" fill="#515151" d="M-365.7-256.2h-9.3v-6.8c0,0,2.1-2.4,4.7-2.4h4.7c0.7,0,1.3-4.9,1.3-4.9s-0.7-4.9-1.3-4.9h-4.7
					c-8.7,0-15.8,7.9-15.8,7.9v11.1h-5.5c-0.7,0-1.2,4.9-1.2,4.9s0.6,5,1.2,5h5.5v44.8c0,0.8,5.5,1.5,5.5,1.5s5.5-0.7,5.5-1.5v-44.8
					h9.3c0.7,0,1.3-4.9,1.3-4.9S-365.1-256.2-365.7-256.2z"/>
			</g>
			<g id="ng-conf-icon" sketch:type="MSShapeGroup">
				<path id="Path" fill="#F4B400" d="M-162.4-65.5l-44.5-24.4l-8.3-68.7l-20.3-14.2l11.5,95.3l61.5,33.6L-162.4-65.5L-162.4-65.5z"
					/>
				<path id="Path_1_" fill="#0F9D58" d="M-157-44v-21.6l44.2-24.3l8.3-68.7l20.3-14.2l-11.5,95.3L-157-44z"/>
				<path id="Path_2_" fill="#4285F4" d="M-231.9-178.1l20.2,14.1l51.9-18.3L-108-164l20.2-14.1l-72-25.4L-231.9-178.1z"/>
				<path id="Path_3_" fill="#DB4437" d="M-118.3-93.2l-41.5,22.8l-41.5-22.5l-7.9-65l49.5-17.4l49.5,17.4L-118.3-93.2z"/>
				<path id="logo-shape" fill="#FFFFFF" d="M-181.5-93.8h-12.8l34.4-76.5l35.6,76.5h-11.9l-7.5-17.4h-30.9L-181.5-93.8z
					 M-159.9-145.8l-10.1,24h21.9L-159.9-145.8z"/>
			</g>
		</g>
	</g>
</g>
<rect x="366.6" y="175.2" fill="none" width="150" height="28.9"/>
<g enable-background="new    ">
	<path fill="#999999" d="M384.4,175.9v2.7h-11.6v8h9.4v2.6h-9.4v8.3h11.6v2.7h-14.9v-24.2H384.4z"/>
	<path fill="#999999" d="M392.7,191.3l-5.8-8.3h2.9c0.2,0,0.4,0,0.5,0.1c0.1,0.1,0.2,0.2,0.3,0.3l4.2,6.4c0.1-0.3,0.2-0.6,0.4-0.9
		l3.7-5.4c0.1-0.2,0.2-0.3,0.3-0.4s0.3-0.1,0.4-0.1h2.8l-5.8,8.2l6,8.9h-2.9c-0.2,0-0.4-0.1-0.6-0.2c-0.1-0.1-0.3-0.3-0.3-0.4
		l-4.3-6.7c-0.1,0.3-0.2,0.6-0.4,0.9l-4,5.8c-0.1,0.2-0.2,0.3-0.4,0.4c-0.1,0.1-0.3,0.2-0.5,0.2h-2.7L392.7,191.3z"/>
	<path fill="#999999" d="M410.9,200.4c-1.4,0-2.4-0.4-3.1-1.1c-0.7-0.8-1.1-1.8-1.1-3.3v-10.5h-2.1c-0.2,0-0.3-0.1-0.5-0.2
		s-0.2-0.3-0.2-0.5v-1.2l2.8-0.4l0.7-5.3c0-0.2,0.1-0.3,0.2-0.4c0.1-0.1,0.3-0.2,0.5-0.2h1.5v5.9h4.9v2.2h-4.9v10.3
		c0,0.7,0.2,1.3,0.5,1.6c0.3,0.3,0.8,0.5,1.4,0.5c0.3,0,0.6,0,0.8-0.1s0.4-0.2,0.6-0.3c0.2-0.1,0.3-0.2,0.4-0.3s0.2-0.1,0.3-0.1
		c0.2,0,0.3,0.1,0.4,0.3l0.9,1.4c-0.5,0.5-1.1,0.9-1.9,1.1C412.4,200.2,411.6,200.4,410.9,200.4z"/>
	<path fill="#999999" d="M425,182.7c1,0,2,0.2,2.8,0.5c0.9,0.3,1.6,0.8,2.2,1.5c0.6,0.6,1.1,1.4,1.5,2.4c0.4,1,0.5,2,0.5,3.3
		c0,0.5-0.1,0.8-0.2,0.9c-0.1,0.2-0.3,0.2-0.6,0.2H420c0,1.1,0.2,2,0.4,2.8c0.3,0.8,0.6,1.5,1.1,2c0.5,0.5,1,0.9,1.7,1.2
		c0.7,0.3,1.4,0.4,2.2,0.4c0.8,0,1.4-0.1,2-0.3s1-0.4,1.4-0.6c0.4-0.2,0.7-0.4,1-0.6c0.3-0.2,0.5-0.3,0.7-0.3c0.2,0,0.4,0.1,0.6,0.3
		l0.8,1.1c-0.4,0.5-0.8,0.8-1.3,1.2s-1.1,0.6-1.7,0.8s-1.2,0.4-1.8,0.5c-0.6,0.1-1.3,0.2-1.9,0.2c-1.2,0-2.3-0.2-3.3-0.6
		c-1-0.4-1.9-1-2.6-1.8c-0.7-0.8-1.3-1.7-1.7-2.9c-0.4-1.1-0.6-2.4-0.6-3.9c0-1.2,0.2-2.3,0.5-3.3c0.4-1,0.9-1.9,1.6-2.7
		s1.5-1.4,2.5-1.8C422.7,183,423.8,182.7,425,182.7z M425.1,184.9c-1.5,0-2.6,0.4-3.4,1.3c-0.8,0.8-1.4,2-1.6,3.5h9.3
		c0-0.7-0.1-1.3-0.3-1.9c-0.2-0.6-0.5-1.1-0.8-1.5c-0.4-0.4-0.8-0.7-1.4-1C426.4,185.1,425.8,184.9,425.1,184.9z"/>
	<path fill="#999999" d="M436,200.1V183h1.8c0.4,0,0.7,0.2,0.8,0.6l0.2,1.9c0.7-0.8,1.6-1.5,2.5-2c0.9-0.5,2-0.8,3.2-0.8
		c0.9,0,1.8,0.2,2.5,0.5s1.3,0.7,1.8,1.3s0.8,1.3,1.1,2.1s0.4,1.7,0.4,2.7v10.9h-3v-10.9c0-1.3-0.3-2.3-0.9-3s-1.5-1.1-2.7-1.1
		c-0.9,0-1.7,0.2-2.5,0.6c-0.8,0.4-1.5,1-2.1,1.7v12.6H436z"/>
	<path fill="#999999" d="M466.8,200.1c-0.4,0-0.7-0.2-0.8-0.6l-0.3-2.1c-0.7,0.9-1.6,1.6-2.5,2.1c-0.9,0.5-2,0.8-3.2,0.8
		c-1,0-1.9-0.2-2.7-0.6c-0.8-0.4-1.5-0.9-2-1.7c-0.6-0.7-1-1.6-1.3-2.7c-0.3-1.1-0.5-2.3-0.5-3.8c0-1.3,0.2-2.4,0.5-3.5
		c0.3-1.1,0.8-2,1.5-2.8s1.4-1.4,2.3-1.9c0.9-0.5,1.9-0.7,3.1-0.7c1,0,1.9,0.2,2.7,0.5c0.7,0.4,1.4,0.9,2,1.5v-9.5h3v24.9H466.8z
		 M461,197.9c1,0,1.8-0.2,2.6-0.7c0.7-0.5,1.4-1.1,2-1.9v-8.3c-0.6-0.7-1.2-1.3-1.8-1.6s-1.4-0.4-2.2-0.4c-1.6,0-2.8,0.6-3.7,1.7
		c-0.9,1.1-1.3,2.8-1.3,4.9c0,1.1,0.1,2.1,0.3,2.9s0.5,1.4,0.8,2s0.8,0.9,1.4,1.1C459.6,197.8,460.3,197.9,461,197.9z"/>
	<path fill="#999999" d="M480.4,182.7c1,0,2,0.2,2.8,0.5c0.9,0.3,1.6,0.8,2.2,1.5c0.6,0.6,1.1,1.4,1.5,2.4c0.4,1,0.5,2,0.5,3.3
		c0,0.5-0.1,0.8-0.2,0.9c-0.1,0.2-0.3,0.2-0.6,0.2h-11.4c0,1.1,0.2,2,0.4,2.8c0.3,0.8,0.6,1.5,1.1,2c0.5,0.5,1,0.9,1.7,1.2
		c0.7,0.3,1.4,0.4,2.2,0.4c0.8,0,1.4-0.1,2-0.3s1-0.4,1.4-0.6c0.4-0.2,0.7-0.4,1-0.6c0.3-0.2,0.5-0.3,0.7-0.3c0.2,0,0.4,0.1,0.6,0.3
		l0.8,1.1c-0.4,0.5-0.8,0.8-1.3,1.2s-1.1,0.6-1.7,0.8s-1.2,0.4-1.8,0.5c-0.6,0.1-1.3,0.2-1.9,0.2c-1.2,0-2.3-0.2-3.3-0.6
		c-1-0.4-1.9-1-2.6-1.8c-0.7-0.8-1.3-1.7-1.7-2.9c-0.4-1.1-0.6-2.4-0.6-3.9c0-1.2,0.2-2.3,0.5-3.3c0.4-1,0.9-1.9,1.6-2.7
		s1.5-1.4,2.5-1.8C478,183,479.2,182.7,480.4,182.7z M480.5,184.9c-1.5,0-2.6,0.4-3.4,1.3c-0.8,0.8-1.4,2-1.6,3.5h9.3
		c0-0.7-0.1-1.3-0.3-1.9c-0.2-0.6-0.5-1.1-0.8-1.5c-0.4-0.4-0.8-0.7-1.4-1C481.8,185.1,481.1,184.9,480.5,184.9z"/>
	<path fill="#999999" d="M503.4,200.1c-0.4,0-0.7-0.2-0.8-0.6l-0.3-2.1c-0.7,0.9-1.6,1.6-2.5,2.1c-0.9,0.5-2,0.8-3.2,0.8
		c-1,0-1.9-0.2-2.7-0.6c-0.8-0.4-1.5-0.9-2-1.7c-0.6-0.7-1-1.6-1.3-2.7c-0.3-1.1-0.5-2.3-0.5-3.8c0-1.3,0.2-2.4,0.5-3.5
		c0.3-1.1,0.8-2,1.5-2.8s1.4-1.4,2.3-1.9c0.9-0.5,1.9-0.7,3.1-0.7c1,0,1.9,0.2,2.7,0.5c0.7,0.4,1.4,0.9,2,1.5v-9.5h3v24.9H503.4z
		 M497.5,197.9c1,0,1.8-0.2,2.6-0.7c0.7-0.5,1.4-1.1,2-1.9v-8.3c-0.6-0.7-1.2-1.3-1.8-1.6s-1.4-0.4-2.2-0.4c-1.6,0-2.8,0.6-3.7,1.7
		c-0.9,1.1-1.3,2.8-1.3,4.9c0,1.1,0.1,2.1,0.3,2.9s0.5,1.4,0.8,2s0.8,0.9,1.4,1.1C496.2,197.8,496.8,197.9,497.5,197.9z"/>
</g>
</svg>
